<?xml version="1.0" encoding="UTF-8"?>
<svg xmlns="http://www.w3.org/2000/svg" viewBox="0 0 200 200" width="200" height="200" role="img" aria-label="UTM Genius">
  <rect width="200" height="200" fill="#000000"/>
  <g fill="none" stroke="#e8a02a" stroke-width="8" stroke-linejoin="round" stroke-linecap="round">
    <line x1="145.0" y1="126.9" x2="100.0" y2="159.0"/>
    <line x1="145.0" y1="126.9" x2="127.8" y2="75.1"/>
    <line x1="145.0" y1="126.9" x2="172.9" y2="126.2"/>
    <line x1="145.0" y1="42.3" x2="127.8" y2="75.1"/>
    <line x1="145.0" y1="42.3" x2="100.0" y2="22.0"/>
    <line x1="145.0" y1="42.3" x2="172.9" y2="73.8"/>
    <line x1="145.0" y1="157.7" x2="172.9" y2="126.2"/>
    <line x1="145.0" y1="157.7" x2="100.0" y2="178.0"/>
    <line x1="55.0" y1="126.9" x2="100.0" y2="159.0"/>
    <line x1="55.0" y1="126.9" x2="72.2" y2="75.1"/>
    <line x1="55.0" y1="126.9" x2="27.1" y2="126.2"/>
    <line x1="55.0" y1="42.3" x2="100.0" y2="22.0"/>
    <line x1="55.0" y1="42.3" x2="72.2" y2="75.1"/>
    <line x1="55.0" y1="42.3" x2="27.1" y2="73.8"/>
    <line x1="55.0" y1="157.7" x2="100.0" y2="178.0"/>
    <line x1="55.0" y1="157.7" x2="27.1" y2="126.2"/>
    <line x1="100.0" y1="159.0" x2="100.0" y2="178.0"/>
    <line x1="127.8" y1="75.1" x2="72.2" y2="75.1"/>
    <line x1="172.9" y1="126.2" x2="172.9" y2="73.8"/>
    <line x1="27.1" y1="126.2" x2="27.1" y2="73.8"/>
  </g>
</svg>
